<mxfile host="app.diagrams.net" modified="2023-11-27T02:27:00.877Z" agent="Mozilla/5.0 (Macintosh; Intel Mac OS X 10_15_7) AppleWebKit/537.36 (KHTML, like Gecko) Chrome/119.0.0.0 Safari/537.36" etag="IU0L2XmFX_Pq5V6XjSBd" version="21.6.8" type="github">
  <diagram name="Page-1" id="ihr1n8eSguenb38d3ETr">
    <mxGraphModel dx="1434" dy="786" grid="0" gridSize="10" guides="1" tooltips="1" connect="1" arrows="1" fold="1" page="1" pageScale="1" pageWidth="827" pageHeight="1169" math="0" shadow="0">
      <root>
        <mxCell id="0" />
        <mxCell id="1" parent="0" />
        <mxCell id="hToz5KNGnVyRhicrrzIB-1" value="SparkDriver" style="rounded=1;whiteSpace=wrap;html=1;" vertex="1" parent="1">
          <mxGeometry x="67" y="260" width="220" height="110" as="geometry" />
        </mxCell>
        <mxCell id="hToz5KNGnVyRhicrrzIB-2" value="glutenPlugin" style="rounded=1;whiteSpace=wrap;html=1;" vertex="1" parent="1">
          <mxGeometry x="135" y="330" width="80" height="30" as="geometry" />
        </mxCell>
        <mxCell id="hToz5KNGnVyRhicrrzIB-3" value="Executor" style="rounded=1;whiteSpace=wrap;html=1;" vertex="1" parent="1">
          <mxGeometry x="100" y="494" width="150" height="90" as="geometry" />
        </mxCell>
        <mxCell id="hToz5KNGnVyRhicrrzIB-4" value="glutenPlugin" style="rounded=1;whiteSpace=wrap;html=1;" vertex="1" parent="1">
          <mxGeometry x="137" y="548" width="80" height="30" as="geometry" />
        </mxCell>
        <mxCell id="hToz5KNGnVyRhicrrzIB-5" value="" style="endArrow=none;dashed=1;html=1;dashPattern=1 3;strokeWidth=2;rounded=0;" edge="1" parent="1">
          <mxGeometry width="50" height="50" relative="1" as="geometry">
            <mxPoint x="320" y="660" as="sourcePoint" />
            <mxPoint x="320" y="120" as="targetPoint" />
          </mxGeometry>
        </mxCell>
        <mxCell id="hToz5KNGnVyRhicrrzIB-6" value="" style="endArrow=none;dashed=1;html=1;dashPattern=1 3;strokeWidth=2;rounded=0;" edge="1" parent="1">
          <mxGeometry width="50" height="50" relative="1" as="geometry">
            <mxPoint x="320" y="200" as="sourcePoint" />
            <mxPoint x="760" y="200" as="targetPoint" />
          </mxGeometry>
        </mxCell>
        <mxCell id="hToz5KNGnVyRhicrrzIB-7" value="" style="endArrow=none;dashed=1;html=1;dashPattern=1 3;strokeWidth=2;rounded=0;" edge="1" parent="1">
          <mxGeometry width="50" height="50" relative="1" as="geometry">
            <mxPoint x="560" y="660" as="sourcePoint" />
            <mxPoint x="560" y="120" as="targetPoint" />
          </mxGeometry>
        </mxCell>
        <mxCell id="hToz5KNGnVyRhicrrzIB-8" value="&lt;font style=&quot;font-size: 17px;&quot;&gt;OnDriverStart&lt;/font&gt;" style="text;html=1;strokeColor=none;fillColor=none;align=center;verticalAlign=middle;whiteSpace=wrap;rounded=0;" vertex="1" parent="1">
          <mxGeometry x="400" y="160" width="60" height="30" as="geometry" />
        </mxCell>
        <mxCell id="hToz5KNGnVyRhicrrzIB-10" value="&lt;font style=&quot;font-size: 17px;&quot;&gt;OnDriverShutdown&lt;br&gt;&lt;/font&gt;" style="text;html=1;strokeColor=none;fillColor=none;align=center;verticalAlign=middle;whiteSpace=wrap;rounded=0;" vertex="1" parent="1">
          <mxGeometry x="646" y="160" width="60" height="30" as="geometry" />
        </mxCell>
        <mxCell id="hToz5KNGnVyRhicrrzIB-11" value="" style="endArrow=none;dashed=1;html=1;dashPattern=1 3;strokeWidth=2;rounded=0;" edge="1" parent="1">
          <mxGeometry width="50" height="50" relative="1" as="geometry">
            <mxPoint x="330" y="380" as="sourcePoint" />
            <mxPoint x="770" y="380" as="targetPoint" />
          </mxGeometry>
        </mxCell>
        <mxCell id="hToz5KNGnVyRhicrrzIB-12" value="" style="endArrow=none;dashed=1;html=1;dashPattern=1 3;strokeWidth=2;rounded=0;" edge="1" parent="1">
          <mxGeometry width="50" height="50" relative="1" as="geometry">
            <mxPoint x="330" y="470" as="sourcePoint" />
            <mxPoint x="770" y="470" as="targetPoint" />
          </mxGeometry>
        </mxCell>
        <mxCell id="hToz5KNGnVyRhicrrzIB-13" value="" style="endArrow=none;dashed=1;html=1;dashPattern=1 3;strokeWidth=2;rounded=0;" edge="1" parent="1">
          <mxGeometry width="50" height="50" relative="1" as="geometry">
            <mxPoint x="330" y="640" as="sourcePoint" />
            <mxPoint x="770" y="640" as="targetPoint" />
          </mxGeometry>
        </mxCell>
        <mxCell id="hToz5KNGnVyRhicrrzIB-15" value="&lt;font style=&quot;font-size: 17px;&quot;&gt;OnExecutorStart&lt;/font&gt;" style="text;html=1;strokeColor=none;fillColor=none;align=center;verticalAlign=middle;whiteSpace=wrap;rounded=0;" vertex="1" parent="1">
          <mxGeometry x="400" y="420" width="60" height="30" as="geometry" />
        </mxCell>
        <mxCell id="hToz5KNGnVyRhicrrzIB-16" value="&lt;font style=&quot;font-size: 17px;&quot;&gt;OnExecutorShutdown&lt;/font&gt;" style="text;html=1;strokeColor=none;fillColor=none;align=center;verticalAlign=middle;whiteSpace=wrap;rounded=0;" vertex="1" parent="1">
          <mxGeometry x="640" y="420" width="60" height="30" as="geometry" />
        </mxCell>
        <mxCell id="hToz5KNGnVyRhicrrzIB-17" value="&lt;font style=&quot;font-size: 16px;&quot;&gt;1. Inject UDF jar&lt;br&gt;2. Inject Velox/Glue jar&lt;br&gt;3. Inject native writer&lt;/font&gt;" style="text;html=1;strokeColor=none;fillColor=none;align=left;verticalAlign=middle;whiteSpace=wrap;rounded=0;" vertex="1" parent="1">
          <mxGeometry x="350" y="260" width="190" height="70" as="geometry" />
        </mxCell>
        <mxCell id="hToz5KNGnVyRhicrrzIB-18" value="&lt;font style=&quot;font-size: 16px;&quot;&gt;1. Release resource&lt;/font&gt;" style="text;html=1;strokeColor=none;fillColor=none;align=left;verticalAlign=middle;whiteSpace=wrap;rounded=0;" vertex="1" parent="1">
          <mxGeometry x="570" y="260" width="190" height="70" as="geometry" />
        </mxCell>
        <mxCell id="hToz5KNGnVyRhicrrzIB-19" value="&lt;font style=&quot;font-size: 16px;&quot;&gt;1. Inject UDF jar&lt;br&gt;2. Inject Velox/Glue jar&lt;br&gt;3. Inject native writer&lt;/font&gt;" style="text;html=1;strokeColor=none;fillColor=none;align=left;verticalAlign=middle;whiteSpace=wrap;rounded=0;" vertex="1" parent="1">
          <mxGeometry x="350" y="504" width="190" height="70" as="geometry" />
        </mxCell>
        <mxCell id="hToz5KNGnVyRhicrrzIB-20" value="&lt;font style=&quot;font-size: 16px;&quot;&gt;1. Release resource&lt;/font&gt;" style="text;html=1;strokeColor=none;fillColor=none;align=left;verticalAlign=middle;whiteSpace=wrap;rounded=0;" vertex="1" parent="1">
          <mxGeometry x="570" y="504" width="190" height="70" as="geometry" />
        </mxCell>
      </root>
    </mxGraphModel>
  </diagram>
</mxfile>
